<mxfile host="Electron" modified="2024-06-09T15:22:02.704Z" agent="Mozilla/5.0 (Windows NT 10.0; Win64; x64) AppleWebKit/537.36 (KHTML, like Gecko) draw.io/24.4.0 Chrome/120.0.6099.109 Electron/28.1.0 Safari/537.36" etag="kLEPMUZK1vnYb-jZdGdy" version="24.4.0" type="device">
  <diagram name="Page-1" id="I7EL-U5GSe2uPv852LNT">
    <mxGraphModel dx="1434" dy="844" grid="1" gridSize="10" guides="1" tooltips="1" connect="1" arrows="1" fold="1" page="1" pageScale="1" pageWidth="850" pageHeight="1100" math="0" shadow="0">
      <root>
        <mxCell id="0" />
        <mxCell id="1" parent="0" />
        <mxCell id="2wr5xZxjvZLFG_gb1u1q-1" value="" style="rounded=0;whiteSpace=wrap;html=1;" vertex="1" parent="1">
          <mxGeometry x="40" y="120" width="970" height="480" as="geometry" />
        </mxCell>
        <mxCell id="2wr5xZxjvZLFG_gb1u1q-8" style="edgeStyle=orthogonalEdgeStyle;rounded=0;orthogonalLoop=1;jettySize=auto;html=1;" edge="1" parent="1" source="2wr5xZxjvZLFG_gb1u1q-2">
          <mxGeometry relative="1" as="geometry">
            <mxPoint x="330" y="470" as="targetPoint" />
          </mxGeometry>
        </mxCell>
        <mxCell id="2wr5xZxjvZLFG_gb1u1q-2" value="" style="sketch=0;html=1;aspect=fixed;strokeColor=none;shadow=0;fillColor=#3B8DF1;verticalAlign=top;labelPosition=center;verticalLabelPosition=bottom;shape=mxgraph.gcp2.phone_android" vertex="1" parent="1">
          <mxGeometry x="140" y="420" width="56" height="100" as="geometry" />
        </mxCell>
        <mxCell id="2wr5xZxjvZLFG_gb1u1q-13" style="edgeStyle=orthogonalEdgeStyle;rounded=0;orthogonalLoop=1;jettySize=auto;html=1;" edge="1" parent="1" source="2wr5xZxjvZLFG_gb1u1q-3" target="2wr5xZxjvZLFG_gb1u1q-11">
          <mxGeometry relative="1" as="geometry" />
        </mxCell>
        <mxCell id="2wr5xZxjvZLFG_gb1u1q-3" value="" style="fontColor=#0066CC;verticalAlign=top;verticalLabelPosition=bottom;labelPosition=center;align=center;html=1;outlineConnect=0;fillColor=#CCCCCC;strokeColor=#6881B3;gradientColor=none;gradientDirection=north;strokeWidth=2;shape=mxgraph.networks.pc;" vertex="1" parent="1">
          <mxGeometry x="110" y="179" width="100" height="70" as="geometry" />
        </mxCell>
        <mxCell id="2wr5xZxjvZLFG_gb1u1q-10" value="" style="verticalLabelPosition=bottom;html=1;verticalAlign=top;align=center;strokeColor=none;fillColor=#00BEF2;shape=mxgraph.azure.cloud_service;" vertex="1" parent="1">
          <mxGeometry x="560" y="209" width="90" height="70" as="geometry" />
        </mxCell>
        <mxCell id="2wr5xZxjvZLFG_gb1u1q-11" value="&lt;span style=&quot;font-family: &amp;quot;Times New Roman&amp;quot;, serif; font-size: 17.3333px; background-color: rgb(251, 251, 251);&quot;&gt;API Gateway за&lt;br&gt;уеб портал&lt;/span&gt;" style="image;aspect=fixed;html=1;points=[];align=center;fontSize=12;image=img/lib/azure2/networking/Application_Gateways.svg;" vertex="1" parent="1">
          <mxGeometry x="350" y="169" width="90" height="90" as="geometry" />
        </mxCell>
        <mxCell id="2wr5xZxjvZLFG_gb1u1q-14" value="&lt;span style=&quot;font-family: &amp;quot;Times New Roman&amp;quot;, serif; font-size: 17.3333px; background-color: rgb(251, 251, 251);&quot;&gt;API Gateway за &lt;br&gt;мобилно приложение&lt;/span&gt;" style="image;aspect=fixed;html=1;points=[];align=center;fontSize=12;image=img/lib/azure2/networking/Application_Gateways.svg;" vertex="1" parent="1">
          <mxGeometry x="350" y="425" width="90" height="90" as="geometry" />
        </mxCell>
        <mxCell id="2wr5xZxjvZLFG_gb1u1q-15" value="" style="verticalLabelPosition=bottom;html=1;verticalAlign=top;align=center;strokeColor=none;fillColor=#00BEF2;shape=mxgraph.azure.cloud_service;" vertex="1" parent="1">
          <mxGeometry x="620" y="149" width="90" height="70" as="geometry" />
        </mxCell>
        <mxCell id="2wr5xZxjvZLFG_gb1u1q-16" value="" style="verticalLabelPosition=bottom;html=1;verticalAlign=top;align=center;strokeColor=none;fillColor=#00BEF2;shape=mxgraph.azure.cloud_service;" vertex="1" parent="1">
          <mxGeometry x="620" y="390" width="90" height="70" as="geometry" />
        </mxCell>
        <mxCell id="2wr5xZxjvZLFG_gb1u1q-17" style="edgeStyle=orthogonalEdgeStyle;rounded=0;orthogonalLoop=1;jettySize=auto;html=1;entryX=0.244;entryY=0.071;entryDx=0;entryDy=0;entryPerimeter=0;" edge="1" parent="1" source="2wr5xZxjvZLFG_gb1u1q-11" target="2wr5xZxjvZLFG_gb1u1q-10">
          <mxGeometry relative="1" as="geometry" />
        </mxCell>
        <mxCell id="2wr5xZxjvZLFG_gb1u1q-24" value="" style="verticalLabelPosition=bottom;html=1;verticalAlign=top;align=center;strokeColor=none;fillColor=#00BEF2;shape=mxgraph.azure.cloud_service;" vertex="1" parent="1">
          <mxGeometry x="670" y="445" width="90" height="70" as="geometry" />
        </mxCell>
        <mxCell id="2wr5xZxjvZLFG_gb1u1q-25" value="" style="verticalLabelPosition=bottom;html=1;verticalAlign=top;align=center;strokeColor=none;fillColor=#00BEF2;shape=mxgraph.azure.cloud_service;" vertex="1" parent="1">
          <mxGeometry x="560" y="445" width="90" height="70" as="geometry" />
        </mxCell>
        <mxCell id="2wr5xZxjvZLFG_gb1u1q-26" value="" style="verticalLabelPosition=bottom;html=1;verticalAlign=top;align=center;strokeColor=none;fillColor=#00BEF2;shape=mxgraph.azure.cloud_service;" vertex="1" parent="1">
          <mxGeometry x="690" y="229" width="90" height="70" as="geometry" />
        </mxCell>
        <mxCell id="2wr5xZxjvZLFG_gb1u1q-27" style="edgeStyle=orthogonalEdgeStyle;rounded=0;orthogonalLoop=1;jettySize=auto;html=1;entryX=0.011;entryY=0.357;entryDx=0;entryDy=0;entryPerimeter=0;" edge="1" parent="1" source="2wr5xZxjvZLFG_gb1u1q-14" target="2wr5xZxjvZLFG_gb1u1q-25">
          <mxGeometry relative="1" as="geometry" />
        </mxCell>
        <mxCell id="2wr5xZxjvZLFG_gb1u1q-29" style="edgeStyle=orthogonalEdgeStyle;rounded=0;orthogonalLoop=1;jettySize=auto;html=1;" edge="1" parent="1" source="2wr5xZxjvZLFG_gb1u1q-11">
          <mxGeometry relative="1" as="geometry">
            <mxPoint x="620" y="396" as="targetPoint" />
            <Array as="points">
              <mxPoint x="470" y="214" />
              <mxPoint x="470" y="396" />
            </Array>
          </mxGeometry>
        </mxCell>
        <mxCell id="2wr5xZxjvZLFG_gb1u1q-30" style="edgeStyle=orthogonalEdgeStyle;rounded=0;orthogonalLoop=1;jettySize=auto;html=1;entryX=0.011;entryY=0.6;entryDx=0;entryDy=0;entryPerimeter=0;" edge="1" parent="1" source="2wr5xZxjvZLFG_gb1u1q-14" target="2wr5xZxjvZLFG_gb1u1q-10">
          <mxGeometry relative="1" as="geometry" />
        </mxCell>
        <mxCell id="2wr5xZxjvZLFG_gb1u1q-37" value="" style="sketch=0;outlineConnect=0;fontColor=#232F3E;gradientColor=none;fillColor=#E7157B;strokeColor=none;dashed=0;verticalLabelPosition=bottom;verticalAlign=top;align=center;html=1;fontSize=12;fontStyle=0;aspect=fixed;pointerEvents=1;shape=mxgraph.aws4.mq_broker;" vertex="1" parent="1">
          <mxGeometry x="880" y="310" width="78" height="69" as="geometry" />
        </mxCell>
        <mxCell id="2wr5xZxjvZLFG_gb1u1q-38" style="edgeStyle=orthogonalEdgeStyle;rounded=0;orthogonalLoop=1;jettySize=auto;html=1;" edge="1" parent="1" source="2wr5xZxjvZLFG_gb1u1q-37">
          <mxGeometry relative="1" as="geometry">
            <mxPoint x="790" y="480" as="targetPoint" />
            <Array as="points">
              <mxPoint x="910" y="480" />
            </Array>
          </mxGeometry>
        </mxCell>
        <mxCell id="2wr5xZxjvZLFG_gb1u1q-40" style="edgeStyle=orthogonalEdgeStyle;rounded=0;orthogonalLoop=1;jettySize=auto;html=1;" edge="1" parent="1" source="2wr5xZxjvZLFG_gb1u1q-37">
          <mxGeometry relative="1" as="geometry">
            <mxPoint x="720" y="190" as="targetPoint" />
            <Array as="points">
              <mxPoint x="910" y="191" />
            </Array>
          </mxGeometry>
        </mxCell>
        <mxCell id="2wr5xZxjvZLFG_gb1u1q-41" value="AMQP" style="text;html=1;align=center;verticalAlign=middle;whiteSpace=wrap;rounded=0;" vertex="1" parent="1">
          <mxGeometry x="780" y="160" width="90" height="30" as="geometry" />
        </mxCell>
        <mxCell id="2wr5xZxjvZLFG_gb1u1q-45" value="AMQP" style="text;html=1;align=center;verticalAlign=middle;whiteSpace=wrap;rounded=0;" vertex="1" parent="1">
          <mxGeometry x="800" y="450" width="90" height="30" as="geometry" />
        </mxCell>
        <mxCell id="2wr5xZxjvZLFG_gb1u1q-46" value="" style="html=1;verticalLabelPosition=bottom;align=center;labelBackgroundColor=#ffffff;verticalAlign=top;strokeWidth=2;strokeColor=#0080F0;shadow=0;dashed=0;shape=mxgraph.ios7.icons.mail;" vertex="1" parent="1">
          <mxGeometry x="850" y="166.75" width="30" height="16.5" as="geometry" />
        </mxCell>
        <mxCell id="2wr5xZxjvZLFG_gb1u1q-47" value="" style="html=1;verticalLabelPosition=bottom;align=center;labelBackgroundColor=#ffffff;verticalAlign=top;strokeWidth=2;strokeColor=#0080F0;shadow=0;dashed=0;shape=mxgraph.ios7.icons.mail;" vertex="1" parent="1">
          <mxGeometry x="870" y="456.75" width="30" height="16.5" as="geometry" />
        </mxCell>
        <mxCell id="2wr5xZxjvZLFG_gb1u1q-51" value="" style="outlineConnect=0;dashed=0;verticalLabelPosition=bottom;verticalAlign=top;align=center;html=1;shape=mxgraph.aws3.http_protocol;fillColor=#5294CF;gradientColor=none;" vertex="1" parent="1">
          <mxGeometry x="235" y="163" width="80" height="66" as="geometry" />
        </mxCell>
        <mxCell id="2wr5xZxjvZLFG_gb1u1q-52" value="" style="outlineConnect=0;dashed=0;verticalLabelPosition=bottom;verticalAlign=top;align=center;html=1;shape=mxgraph.aws3.http_2_protocol;fillColor=#5294CF;gradientColor=none;" vertex="1" parent="1">
          <mxGeometry x="456.5" y="437" width="63" height="66" as="geometry" />
        </mxCell>
        <mxCell id="2wr5xZxjvZLFG_gb1u1q-54" value="&lt;font color=&quot;#ffffff&quot;&gt;REST&lt;/font&gt;&lt;div&gt;&lt;font color=&quot;#ffffff&quot;&gt;заявка&amp;nbsp;&lt;/font&gt;&lt;/div&gt;" style="text;html=1;align=center;verticalAlign=middle;whiteSpace=wrap;rounded=0;" vertex="1" parent="1">
          <mxGeometry x="230" y="425" width="90" height="30" as="geometry" />
        </mxCell>
        <mxCell id="2wr5xZxjvZLFG_gb1u1q-55" value="" style="outlineConnect=0;dashed=0;verticalLabelPosition=bottom;verticalAlign=top;align=center;html=1;shape=mxgraph.aws3.http_protocol;fillColor=#5294CF;gradientColor=none;" vertex="1" parent="1">
          <mxGeometry x="245" y="424" width="80" height="66" as="geometry" />
        </mxCell>
        <mxCell id="2wr5xZxjvZLFG_gb1u1q-56" value="&lt;font color=&quot;#ffffff&quot;&gt;REST&lt;/font&gt;&lt;div&gt;&lt;font color=&quot;#ffffff&quot;&gt;заявка&amp;nbsp;&lt;/font&gt;&lt;/div&gt;" style="text;html=1;align=center;verticalAlign=middle;whiteSpace=wrap;rounded=0;" vertex="1" parent="1">
          <mxGeometry x="240" y="435" width="90" height="30" as="geometry" />
        </mxCell>
        <mxCell id="2wr5xZxjvZLFG_gb1u1q-57" value="&lt;font color=&quot;#ffffff&quot;&gt;REST&lt;/font&gt;&lt;div&gt;&lt;font color=&quot;#ffffff&quot;&gt;заявка&amp;nbsp;&lt;/font&gt;&lt;/div&gt;" style="text;html=1;align=center;verticalAlign=middle;whiteSpace=wrap;rounded=0;" vertex="1" parent="1">
          <mxGeometry x="230" y="169" width="90" height="30" as="geometry" />
        </mxCell>
        <mxCell id="2wr5xZxjvZLFG_gb1u1q-58" value="" style="outlineConnect=0;dashed=0;verticalLabelPosition=bottom;verticalAlign=top;align=center;html=1;shape=mxgraph.aws3.http_2_protocol;fillColor=#5294CF;gradientColor=none;" vertex="1" parent="1">
          <mxGeometry x="470" y="143" width="63" height="66" as="geometry" />
        </mxCell>
        <mxCell id="2wr5xZxjvZLFG_gb1u1q-60" value="&lt;font color=&quot;#ffffff&quot;&gt;gRPC&lt;/font&gt;" style="text;html=1;align=center;verticalAlign=middle;whiteSpace=wrap;rounded=0;" vertex="1" parent="1">
          <mxGeometry x="456.5" y="153.25" width="90" height="30" as="geometry" />
        </mxCell>
        <mxCell id="2wr5xZxjvZLFG_gb1u1q-62" value="&lt;font color=&quot;#ffffff&quot;&gt;gRPC&lt;/font&gt;" style="text;html=1;align=center;verticalAlign=middle;whiteSpace=wrap;rounded=0;" vertex="1" parent="1">
          <mxGeometry x="443" y="450" width="90" height="30" as="geometry" />
        </mxCell>
        <mxCell id="2wr5xZxjvZLFG_gb1u1q-63" value="брокер за съобщения" style="text;html=1;align=center;verticalAlign=middle;whiteSpace=wrap;rounded=0;" vertex="1" parent="1">
          <mxGeometry x="910" y="379" width="60" height="30" as="geometry" />
        </mxCell>
        <mxCell id="2wr5xZxjvZLFG_gb1u1q-64" value="Услуги за извличане на информация за поръчки и доставки" style="text;html=1;align=center;verticalAlign=middle;whiteSpace=wrap;rounded=0;" vertex="1" parent="1">
          <mxGeometry x="570" y="290" width="140" height="30" as="geometry" />
        </mxCell>
        <mxCell id="2wr5xZxjvZLFG_gb1u1q-65" value="Услуги за приемане на команди за поръчки и доставки" style="text;html=1;align=center;verticalAlign=middle;whiteSpace=wrap;rounded=0;" vertex="1" parent="1">
          <mxGeometry x="595" y="520" width="140" height="30" as="geometry" />
        </mxCell>
      </root>
    </mxGraphModel>
  </diagram>
</mxfile>
